<svg xmlns="http://www.w3.org/2000/svg" viewBox="0 0 24 24" width="24" height="24">
  <style>
    :root {
      color-scheme: dark light;
    }
  </style>
  <!-- Book -->
  <path d="M4 19.5A2.5 2.5 0 0 1 6.5 17H20" fill="none" stroke="currentColor" stroke-width="2" stroke-linecap="round" stroke-linejoin="round"/>
  <path d="M6.5 2H20v20H6.5A2.5 2.5 0 0 1 4 19.5v-15A2.5 2.5 0 0 1 6.5 2z" fill="none" stroke="currentColor" stroke-width="2" stroke-linecap="round" stroke-linejoin="round"/>
  <!-- User (smaller and centered in the book) -->
  <path d="M16 17v-1a3 3 0 0 0-3-3h-3a3 3 0 0 0-3 3v1" fill="none" stroke="currentColor" stroke-width="2" stroke-linecap="round" stroke-linejoin="round" transform="scale(0.7) translate(5, 2)"/>
  <circle cx="11.5" cy="9" r="3" fill="none" stroke="currentColor" stroke-width="2" stroke-linecap="round" stroke-linejoin="round" transform="scale(0.7) translate(5, 2)"/>
</svg> 